<svg version="1.1" id="Layer_1" xmlns="http://www.w3.org/2000/svg" xmlns:xlink="http://www.w3.org/1999/xlink" x="0px" y="0px"
	 width="100%" viewBox="0 0 256 76" enable-background="new 0 0 256 76" xml:space="preserve">
<path fill="#FDFDFD" opacity="1.000000" stroke="none" 
	d="
M174.000000,77.000000 
	C116.000008,77.000000 58.500015,77.000000 1.000015,77.000000 
	C1.000010,51.666676 1.000010,26.333353 1.000005,1.000022 
	C86.333313,1.000015 171.666626,1.000015 256.999939,1.000007 
	C256.999969,26.333311 256.999969,51.666622 257.000000,76.999969 
	C229.500000,77.000000 202.000000,77.000000 174.000000,77.000000 
M33.797684,50.039940 
	C41.798351,53.747189 43.643353,46.646015 46.772549,41.799694 
	C47.132038,42.001568 47.491531,42.203445 47.851021,42.405319 
	C47.851021,47.400043 47.851021,52.394768 47.851021,57.439682 
	C51.487740,57.439682 54.407265,57.439682 57.502220,57.439682 
	C57.502220,45.320465 57.502220,33.484192 57.502220,21.696125 
	C47.888622,20.575541 47.893078,20.577978 43.631866,28.366251 
	C41.825951,31.666950 39.996902,34.954987 37.732288,39.056725 
	C35.320408,34.649197 33.353157,31.068045 31.398819,27.479862 
	C27.586382,20.480202 26.007175,19.840256 18.081768,22.097912 
	C18.081768,33.823189 18.081768,45.540710 18.081768,57.327332 
	C21.485815,57.327332 24.531057,57.327332 28.148201,57.327332 
	C28.148201,52.115829 28.148201,47.289627 28.148201,42.463421 
	C28.462557,42.402977 28.776913,42.342529 29.091269,42.282082 
	C30.487858,44.678921 31.884449,47.075760 33.797684,50.039940 
M107.222763,57.686947 
	C107.903999,56.267479 109.061127,54.884399 109.172997,53.421391 
	C109.455139,49.731464 109.266464,46.005539 109.266464,41.848358 
	C113.709557,44.456390 112.765503,50.797165 119.135078,50.933262 
	C125.551849,51.070374 124.755699,44.378044 129.300079,42.040356 
	C129.300079,47.530334 129.300079,52.427753 129.300079,57.293552 
	C132.883652,57.293552 135.917282,57.293552 138.880798,57.293552 
	C138.880798,45.137093 138.880798,33.410610 138.880798,21.739141 
	C129.328232,20.550224 129.335266,20.554035 125.041466,28.483818 
	C123.268585,31.757963 121.458191,35.011795 119.221031,39.082424 
	C116.742653,34.545990 114.769379,30.932823 112.794914,27.320311 
	C109.084137,20.530991 107.110062,19.771561 99.501328,22.114904 
	C99.501328,33.894112 99.501328,45.629814 99.501328,57.712883 
	C102.030510,57.712883 104.172707,57.712883 107.222763,57.686947 
M193.980637,34.575615 
	C192.651031,32.265644 191.315094,29.959301 189.992996,27.645037 
	C185.798782,20.303263 185.605347,20.217951 176.319366,21.853809 
	C176.319366,33.679657 176.319366,45.529961 176.319366,57.454597 
	C179.665680,57.454597 182.596008,57.454597 186.153870,57.454597 
	C186.153870,51.699776 186.153870,46.198460 186.153870,40.697147 
	C189.290024,44.002281 191.325470,47.556580 193.367203,51.107273 
	C197.723190,58.682629 198.211685,58.893776 207.253204,57.097126 
	C207.253204,45.247910 207.253204,33.387604 207.253204,21.686842 
	C203.735550,21.686842 200.675598,21.686842 197.089081,21.686842 
	C197.089081,27.295639 197.089081,32.493431 197.089081,39.032368 
	C195.623154,37.014297 194.983017,36.133034 193.980637,34.575615 
M61.796997,29.907963 
	C61.792374,36.066643 61.637150,42.229881 61.823330,48.382786 
	C62.030586,55.232166 64.994446,58.007896 71.755165,58.081268 
	C76.249100,58.130035 80.744423,58.129959 85.238358,58.081314 
	C92.001076,58.008118 94.958099,55.235546 95.174095,48.384651 
	C95.362839,42.398315 95.349319,36.397461 95.177559,30.410124 
	C94.997231,24.124247 92.251808,21.305603 85.934715,21.006176 
	C80.952568,20.770025 75.942406,20.787369 70.958977,21.010828 
	C65.935081,21.236105 62.373951,23.485619 61.796997,29.907963 
M167.325806,21.262081 
	C159.725815,21.262081 152.125809,21.262081 144.364746,21.262081 
	C144.364746,33.672920 144.364746,45.407383 144.364746,57.377998 
	C154.004501,57.377998 163.372726,57.377998 172.784622,57.377998 
	C172.784622,54.597118 172.784622,52.179646 172.784622,49.136688 
	C166.588150,49.136688 160.683990,49.136688 155.009979,49.136688 
	C153.477753,44.384724 155.281250,43.099670 159.223312,43.351135 
	C162.346359,43.550354 165.492264,43.391235 168.729248,43.391235 
	C168.729248,40.369019 168.729248,37.826469 168.729248,34.752216 
	C163.812363,34.752216 159.252991,34.752216 154.825745,34.752216 
	C153.891342,31.117865 154.690765,29.534460 158.278275,29.690544 
	C163.050995,29.898193 167.839554,29.741796 172.853500,29.741796 
	C172.853500,26.714996 172.853500,24.292282 172.853500,21.532858 
	C171.188232,21.434464 169.731918,21.348417 167.325806,21.262081 
M239.089767,21.269239 
	C229.483322,21.269239 219.876892,21.269239 210.161453,21.269239 
	C210.161453,24.340401 210.161453,26.767073 210.161453,29.441683 
	C213.621048,29.677872 216.837296,29.897448 220.512466,30.148355 
	C220.512466,39.561344 220.512466,48.476528 220.512466,57.425777 
	C224.099777,57.425777 227.172440,57.425777 230.924377,57.425777 
	C230.924377,48.067757 230.924377,39.028786 230.924377,29.962420 
	C234.688385,29.793589 237.763916,29.655640 241.620926,29.482637 
	C240.982178,26.317707 240.486740,23.862900 239.089767,21.269239 
z"/>
<path fill="#746767" opacity="1.000000" stroke="none" 
	d="
M33.539360,49.756271 
	C31.884449,47.075760 30.487858,44.678921 29.091269,42.282082 
	C28.776913,42.342529 28.462557,42.402977 28.148201,42.463421 
	C28.148201,47.289627 28.148201,52.115829 28.148201,57.327332 
	C24.531057,57.327332 21.485815,57.327332 18.081768,57.327332 
	C18.081768,45.540710 18.081768,33.823189 18.081768,22.097912 
	C26.007175,19.840256 27.586382,20.480202 31.398819,27.479862 
	C33.353157,31.068045 35.320408,34.649197 37.732288,39.056725 
	C39.996902,34.954987 41.825951,31.666950 43.631866,28.366251 
	C47.893078,20.577978 47.888622,20.575541 57.502220,21.696125 
	C57.502220,33.484192 57.502220,45.320465 57.502220,57.439682 
	C54.407265,57.439682 51.487740,57.439682 47.851021,57.439682 
	C47.851021,52.394768 47.851021,47.400043 47.851021,42.405319 
	C47.491531,42.203445 47.132038,42.001568 46.772549,41.799694 
	C43.643353,46.646015 41.798351,53.747189 33.539360,49.756271 
z"/>
<path fill="#746767" opacity="1.000000" stroke="none" 
	d="
M106.768829,57.699913 
	C104.172707,57.712883 102.030510,57.712883 99.501328,57.712883 
	C99.501328,45.629814 99.501328,33.894112 99.501328,22.114904 
	C107.110062,19.771561 109.084137,20.530991 112.794914,27.320311 
	C114.769379,30.932823 116.742653,34.545990 119.221031,39.082424 
	C121.458191,35.011795 123.268585,31.757963 125.041466,28.483818 
	C129.335266,20.554035 129.328232,20.550224 138.880798,21.739141 
	C138.880798,33.410610 138.880798,45.137093 138.880798,57.293552 
	C135.917282,57.293552 132.883652,57.293552 129.300079,57.293552 
	C129.300079,52.427753 129.300079,47.530334 129.300079,42.040356 
	C124.755699,44.378044 125.551849,51.070374 119.135078,50.933262 
	C112.765503,50.797165 113.709557,44.456390 109.266464,41.848358 
	C109.266464,46.005539 109.455139,49.731464 109.172997,53.421391 
	C109.061127,54.884399 107.903999,56.267479 106.768829,57.699913 
z"/>
<path fill="#766A6A" opacity="1.000000" stroke="none" 
	d="
M194.161743,34.913696 
	C194.983017,36.133034 195.623154,37.014297 197.089081,39.032368 
	C197.089081,32.493431 197.089081,27.295639 197.089081,21.686842 
	C200.675598,21.686842 203.735550,21.686842 207.253204,21.686842 
	C207.253204,33.387604 207.253204,45.247910 207.253204,57.097126 
	C198.211685,58.893776 197.723190,58.682629 193.367203,51.107273 
	C191.325470,47.556580 189.290024,44.002281 186.153870,40.697147 
	C186.153870,46.198460 186.153870,51.699776 186.153870,57.454597 
	C182.596008,57.454597 179.665680,57.454597 176.319366,57.454597 
	C176.319366,45.529961 176.319366,33.679657 176.319366,21.853809 
	C185.605347,20.217951 185.798782,20.303263 189.992996,27.645037 
	C191.315094,29.959301 192.651031,32.265644 194.161743,34.913696 
z"/>
<path fill="#716565" opacity="1.000000" stroke="none" 
	d="
M61.830978,29.462395 
	C62.373951,23.485619 65.935081,21.236105 70.958977,21.010828 
	C75.942406,20.787369 80.952568,20.770025 85.934715,21.006176 
	C92.251808,21.305603 94.997231,24.124247 95.177559,30.410124 
	C95.349319,36.397461 95.362839,42.398315 95.174095,48.384651 
	C94.958099,55.235546 92.001076,58.008118 85.238358,58.081314 
	C80.744423,58.129959 76.249100,58.130035 71.755165,58.081268 
	C64.994446,58.007896 62.030586,55.232166 61.823330,48.382786 
	C61.637150,42.229881 61.792374,36.066643 61.830978,29.462395 
M85.137413,38.535149 
	C85.135498,28.456924 84.751671,27.974945 75.400902,29.238829 
	C74.088974,29.416153 72.159271,31.467630 72.032982,32.795872 
	C71.609322,37.251717 71.691277,41.785042 71.990662,46.261219 
	C72.073860,47.505135 73.372200,49.427029 74.468109,49.722923 
	C82.668869,51.937149 85.134460,49.932919 85.137497,41.500187 
	C85.137733,40.834084 85.137520,40.167980 85.137413,38.535149 
z"/>
<path fill="#776B6B" opacity="1.000000" stroke="none" 
	d="
M167.800705,21.262226 
	C169.731918,21.348417 171.188232,21.434464 172.853500,21.532858 
	C172.853500,24.292282 172.853500,26.714996 172.853500,29.741796 
	C167.839554,29.741796 163.050995,29.898193 158.278275,29.690544 
	C154.690765,29.534460 153.891342,31.117865 154.825745,34.752216 
	C159.252991,34.752216 163.812363,34.752216 168.729248,34.752216 
	C168.729248,37.826469 168.729248,40.369019 168.729248,43.391235 
	C165.492264,43.391235 162.346359,43.550354 159.223312,43.351135 
	C155.281250,43.099670 153.477753,44.384724 155.009979,49.136688 
	C160.683990,49.136688 166.588150,49.136688 172.784622,49.136688 
	C172.784622,52.179646 172.784622,54.597118 172.784622,57.377998 
	C163.372726,57.377998 154.004501,57.377998 144.364746,57.377998 
	C144.364746,45.407383 144.364746,33.672920 144.364746,21.262081 
	C152.125809,21.262081 159.725815,21.262081 167.800705,21.262226 
z"/>
<path fill="#7B6F6F" opacity="1.000000" stroke="none" 
	d="
M239.540543,21.338667 
	C240.486740,23.862900 240.982178,26.317707 241.620926,29.482637 
	C237.763916,29.655640 234.688385,29.793589 230.924377,29.962420 
	C230.924377,39.028786 230.924377,48.067757 230.924377,57.425777 
	C227.172440,57.425777 224.099777,57.425777 220.512466,57.425777 
	C220.512466,48.476528 220.512466,39.561344 220.512466,30.148355 
	C216.837296,29.897448 213.621048,29.677872 210.161453,29.441683 
	C210.161453,26.767073 210.161453,24.340401 210.161453,21.269239 
	C219.876892,21.269239 229.483322,21.269239 239.540543,21.338667 
z"/>
<path fill="#FBFAFA" opacity="1.000000" stroke="none" 
	d="
M85.137466,39.018513 
	C85.137520,40.167980 85.137733,40.834084 85.137497,41.500187 
	C85.134460,49.932919 82.668869,51.937149 74.468109,49.722923 
	C73.372200,49.427029 72.073860,47.505135 71.990662,46.261219 
	C71.691277,41.785042 71.609322,37.251717 72.032982,32.795872 
	C72.159271,31.467630 74.088974,29.416153 75.400902,29.238829 
	C84.751671,27.974945 85.135498,28.456924 85.137466,39.018513 
z"/>
</svg>